<svg width="147" height="29" viewBox="0 0 147 29" fill="none" xmlns="http://www.w3.org/2000/svg">
<path d="M57.1378 21.293C57.5939 21.293 58.0459 21.3822 58.4937 21.5619C58.9412 21.7408 59.2814 21.9698 59.5147 22.2486L58.922 23.0076C58.6954 22.768 58.4158 22.5778 58.0832 22.4388C57.7501 22.299 57.4099 22.229 57.0622 22.229C56.6765 22.229 56.3611 22.3175 56.1146 22.4949C55.8681 22.6723 55.7443 22.9006 55.7443 23.1793C55.7443 23.3605 55.7898 23.5191 55.8813 23.6551C55.9724 23.791 56.0954 23.9029 56.2486 23.9903C56.4025 24.0773 56.5786 24.1541 56.7758 24.2216C56.9738 24.2894 57.183 24.353 57.4043 24.414C57.6263 24.4751 57.8464 24.5395 58.0658 24.6088C58.2852 24.6773 58.4941 24.7628 58.692 24.8642C58.8892 24.9662 59.0646 25.0849 59.2185 25.222C59.3724 25.358 59.4951 25.5324 59.5866 25.7441C59.6776 25.9561 59.7236 26.1979 59.7236 26.4707C59.7236 26.7494 59.6633 27.0153 59.5433 27.2688C59.4236 27.5219 59.2558 27.7438 59.0417 27.9336C58.8268 28.1246 58.5592 28.2756 58.2386 28.3868C57.9172 28.4986 57.5676 28.5544 57.1898 28.5544C56.6558 28.5544 56.1402 28.4508 55.6438 28.244C55.1467 28.0372 54.7346 27.7675 54.4072 27.4364L55.041 26.7121C55.7025 27.3163 56.4191 27.6184 57.1898 27.6184C57.6319 27.6184 57.9936 27.5125 58.2743 27.3012C58.5543 27.0891 58.6947 26.8157 58.6947 26.4808C58.6947 26.3064 58.6499 26.1539 58.5603 26.0224C58.4708 25.891 58.3492 25.7851 58.1953 25.7045C58.0414 25.6243 57.866 25.552 57.6681 25.4879C57.4709 25.4239 57.2631 25.3632 57.0449 25.3052C56.827 25.248 56.6091 25.1858 56.3908 25.118C56.1729 25.051 55.9648 24.9662 55.7676 24.8642C55.5697 24.7628 55.3943 24.6446 55.2404 24.5093C55.0865 24.3749 54.9646 24.2005 54.8754 23.985C54.7858 23.7699 54.741 23.5244 54.741 23.2486C54.741 22.6874 54.9676 22.2207 55.4203 21.8497C55.8723 21.4783 56.445 21.293 57.1378 21.293Z" fill="#1C1C23"/>
<path d="M68.5696 21.2927C69.0799 21.2927 69.5619 21.3858 70.0165 21.5715C70.4711 21.7572 70.8614 22.0095 71.1877 22.3297C71.5139 22.6499 71.7713 23.0337 71.9606 23.48C72.1492 23.9271 72.2444 24.4014 72.2444 24.9038C72.2444 25.4127 72.1492 25.8934 71.9606 26.345C71.7713 26.7966 71.5139 27.1834 71.1877 27.5074C70.8614 27.8306 70.4711 28.0859 70.0165 28.2731C69.5619 28.4611 69.0799 28.5541 68.5696 28.5541C68.0563 28.5541 67.5723 28.4611 67.1181 28.2731C66.6635 28.0859 66.274 27.8306 65.95 27.5074C65.6252 27.1834 65.3685 26.7966 65.1793 26.345C64.99 25.8934 64.8955 25.4123 64.8955 24.9038C64.8955 24.2338 65.0554 23.6228 65.3749 23.0714C65.6941 22.5199 66.1347 22.0856 66.6973 21.7685C67.26 21.4513 67.8839 21.2927 68.5696 21.2927ZM69.913 22.5813C69.5074 22.3463 69.0595 22.2287 68.5696 22.2287C68.0803 22.2287 67.6329 22.3459 67.2268 22.5813C66.8219 22.8156 66.5032 23.1388 66.2714 23.549C66.0403 23.9592 65.9244 24.4108 65.9244 24.9038C65.9244 25.6689 66.1788 26.3126 66.6872 26.835C67.196 27.3571 67.8226 27.6181 68.5696 27.6181C69.3166 27.6181 69.9439 27.3575 70.4527 26.835C70.9615 26.313 71.2155 25.6689 71.2155 24.9038C71.2155 24.4108 71.0996 23.9592 70.8685 23.549C70.6367 23.1388 70.318 22.8156 69.913 22.5813Z" fill="#1C1C23"/>
<path d="M77.7529 21.3911H78.7607V27.5293H82.3343V28.4559H77.7529V21.3911Z" fill="#1C1C23"/>
<path d="M91.8992 27.7662C91.3674 28.2913 90.6987 28.5546 89.8949 28.5546C89.0911 28.5546 88.4231 28.2917 87.8906 27.7662C87.3588 27.2412 87.0928 26.582 87.0928 25.7906V21.3911H88.1006V25.7906C88.1006 26.3127 88.2707 26.7462 88.6101 27.0912C88.9503 27.4363 89.3786 27.608 89.8949 27.608C90.412 27.608 90.841 27.4359 91.1827 27.0912C91.5236 26.7462 91.6945 26.3127 91.6945 25.7906V21.3911H92.6978V25.7906C92.6978 26.582 92.4317 27.2408 91.8992 27.7662Z" fill="#1C1C23"/>
<path d="M103.634 21.3911V22.3222H101.333V28.4559H100.325V22.3222H98.0195V21.3911H103.634Z" fill="#1C1C23"/>
<path d="M108.954 21.3911H109.962V28.4559H108.954V21.3911Z" fill="#1C1C23"/>
<path d="M119.146 21.2927C119.656 21.2927 120.138 21.3858 120.593 21.5715C121.047 21.7572 121.438 22.0095 121.764 22.3297C122.09 22.6499 122.347 23.0337 122.537 23.48C122.725 23.9271 122.821 24.4014 122.821 24.9038C122.821 25.4127 122.725 25.8934 122.537 26.345C122.347 26.7966 122.09 27.1834 121.764 27.5074C121.438 27.8306 121.047 28.0859 120.593 28.2731C120.138 28.4611 119.656 28.5541 119.146 28.5541C118.632 28.5541 118.148 28.4611 117.694 28.2731C117.24 28.0859 116.85 27.8306 116.526 27.5074C116.201 27.1834 115.945 26.7966 115.755 26.345C115.566 25.8934 115.472 25.4123 115.472 24.9038C115.472 24.2338 115.632 23.6228 115.951 23.0714C116.27 22.5199 116.711 22.0856 117.274 21.7685C117.836 21.4513 118.46 21.2927 119.146 21.2927ZM120.489 22.5813C120.084 22.3463 119.636 22.2287 119.146 22.2287C118.657 22.2287 118.209 22.3459 117.803 22.5813C117.398 22.8156 117.079 23.1388 116.848 23.549C116.616 23.9592 116.501 24.4108 116.501 24.9038C116.501 25.6689 116.755 26.3126 117.263 26.835C117.772 27.3575 118.399 27.6181 119.146 27.6181C119.893 27.6181 120.52 27.3575 121.029 26.835C121.538 26.313 121.792 25.6689 121.792 24.9038C121.792 24.4108 121.676 23.9592 121.445 23.549C121.212 23.1388 120.894 22.8156 120.489 22.5813Z" fill="#1C1C23"/>
<path d="M128.329 21.3911H129.236L132.991 26.6185V21.3911H133.99V28.4559H133.103L129.337 23.239V28.4559H128.329V21.3911H128.329Z" fill="#1C1C23"/>
<path d="M142.022 21.2927C142.478 21.2927 142.93 21.382 143.378 21.5617C143.825 21.7406 144.165 21.9696 144.398 22.2483L143.806 23.0073C143.579 22.7678 143.3 22.5775 142.967 22.4385C142.634 22.2988 142.294 22.2287 141.946 22.2287C141.56 22.2287 141.245 22.3173 140.998 22.4947C140.752 22.6721 140.628 22.9003 140.628 23.1791C140.628 23.3603 140.674 23.5188 140.765 23.6548C140.856 23.7908 140.979 23.9027 141.132 23.99C141.286 24.0771 141.462 24.1539 141.66 24.2213C141.858 24.2891 142.067 24.3528 142.288 24.4138C142.51 24.4748 142.73 24.5392 142.95 24.6085C143.169 24.6771 143.378 24.7626 143.576 24.8639C143.773 24.966 143.948 25.0846 144.102 25.2218C144.256 25.3577 144.379 25.5321 144.47 25.7438C144.561 25.9559 144.607 26.1977 144.607 26.4704C144.607 26.7491 144.547 27.0151 144.427 27.2686C144.307 27.5217 144.14 27.7436 143.925 27.9334C143.711 28.1244 143.443 28.2754 143.122 28.3865C142.801 28.4984 142.451 28.5541 142.074 28.5541C141.54 28.5541 141.024 28.4506 140.528 28.2438C140.03 28.037 139.618 27.7673 139.291 27.4362L139.925 26.7119C140.586 27.316 141.303 27.6181 142.074 27.6181C142.516 27.6181 142.877 27.5123 143.158 27.301C143.438 27.0889 143.578 26.8154 143.578 26.4806C143.578 26.3062 143.534 26.1536 143.444 26.0222C143.355 25.8907 143.233 25.7849 143.079 25.7043C142.925 25.624 142.75 25.5517 142.552 25.4877C142.355 25.4236 142.147 25.363 141.929 25.305C141.711 25.2477 141.493 25.1856 141.275 25.1178C141.057 25.0507 140.849 24.966 140.651 24.8639C140.453 24.7626 140.278 24.6443 140.124 24.5091C139.97 24.3746 139.848 24.2002 139.759 23.9848C139.67 23.7697 139.625 23.5241 139.625 23.2484C139.625 22.6872 139.851 22.2205 140.304 21.8494C140.756 21.478 141.329 21.2927 142.022 21.2927Z" fill="#1C1C23"/>
<path d="M55.7617 12.951V1.74661C55.7617 1.16504 55.8942 0.7281 56.1587 0.437312C56.4233 0.146524 56.7654 0 57.1861 0C57.6185 0 57.9692 0.144264 58.2372 0.431662C58.5062 0.72019 58.6395 1.15863 58.6395 1.74624V12.9506C58.6395 13.5386 58.5062 13.9789 58.2372 14.2697C57.9692 14.5605 57.6185 14.7059 57.1861 14.7059C56.7718 14.7059 56.432 14.5594 56.1633 14.2644C55.8949 13.9706 55.7617 13.5326 55.7617 12.951Z" fill="#1C1C23"/>
<path d="M65.7658 1.72727L71.2992 10.1085V1.64968C71.2992 1.10049 71.4174 0.688041 71.653 0.412696C71.8886 0.138105 72.2069 0.000244141 72.6073 0.000244141C73.0217 0.000244141 73.3476 0.138105 73.5862 0.412696C73.8251 0.688418 73.9456 1.10087 73.9456 1.64968V12.8337C73.9456 14.0828 73.4281 14.7061 72.3943 14.7061C72.1362 14.7061 71.904 14.6696 71.6974 14.5954C71.4897 14.5212 71.2962 14.4025 71.1156 14.2413C70.935 14.0797 70.7671 13.8903 70.6109 13.6741C70.4559 13.4575 70.3012 13.236 70.1462 13.0096L64.7482 4.72517V13.0578C64.7482 13.6006 64.6225 14.0119 64.3707 14.2895C64.1178 14.5675 63.7953 14.7061 63.4013 14.7061C62.9938 14.7061 62.6675 14.566 62.4225 14.2839C62.1771 14.0029 62.0537 13.5938 62.0537 13.0575V2.08586C62.0537 1.62067 62.1053 1.25568 62.2095 0.989752C62.3322 0.698964 62.5354 0.46091 62.8195 0.277095C63.1037 0.0932812 63.4111 0.000244141 63.7404 0.000244141C63.9986 0.000244141 64.2202 0.0431843 64.4042 0.127181C64.5883 0.211178 64.7497 0.324179 64.8893 0.466183C65.0282 0.608187 65.17 0.792378 65.3153 1.01838C65.4602 1.24589 65.6107 1.48168 65.7658 1.72727Z" fill="#1C1C23"/>
<path d="M85.7437 2.46475H80.0748V6.10187H84.8146C85.2534 6.10187 85.5815 6.20093 85.7979 6.39793C86.0143 6.59492 86.1227 6.85859 86.1227 7.18818C86.1227 7.51889 86.0128 7.7803 85.7923 7.97429C85.5729 8.16827 85.247 8.26507 84.8146 8.26507H80.0748V12.9508C80.0748 13.5452 79.9404 13.9867 79.6725 14.2741C79.4046 14.5615 79.0602 14.7057 78.641 14.7057C78.2139 14.7057 77.8665 14.5603 77.5986 14.2695C77.3306 13.9788 77.1963 13.5384 77.1963 12.9505V2.00823C77.1963 1.59465 77.2576 1.25678 77.3814 0.994994C77.5041 0.73321 77.6957 0.542616 77.958 0.422082C78.2195 0.302678 78.5541 0.243164 78.9605 0.243164H85.7441C86.2036 0.243164 86.5446 0.344488 86.767 0.547889C86.9897 0.75242 87.1015 1.01835 87.1015 1.34906C87.1015 1.68505 86.9897 1.95512 86.767 2.1589C86.5442 2.3623 86.2029 2.46475 85.7437 2.46475Z" fill="#1C1C23"/>
<path d="M93.3634 12.951V8.43964L89.8941 3.05591C89.5908 2.57152 89.3755 2.19334 89.2498 1.92101C89.1241 1.64981 89.0605 1.41401 89.0605 1.21363C89.0605 0.882911 89.1885 0.598903 89.4437 0.359719C89.6988 0.120534 90.0138 0 90.3893 0C90.783 0 91.0822 0.111871 91.2854 0.334858C91.4886 0.558976 91.7942 1.00345 92.201 1.66902L94.8571 5.98564L97.541 1.66902C97.7025 1.40422 97.8391 1.18123 97.9486 0.999302C98.0585 0.818501 98.1789 0.649377 98.3121 0.490046C98.4446 0.331845 98.5906 0.211311 98.752 0.127314C98.9146 0.0433169 99.1114 0.000376749 99.3436 0.000376749C99.7049 0.000376749 100.007 0.118651 100.249 0.354445C100.493 0.59137 100.613 0.863701 100.613 1.17483C100.613 1.42682 100.552 1.67881 100.429 1.9308C100.306 2.18392 100.097 2.53272 99.7986 2.97832L96.2423 8.43926V12.9506C96.2423 13.5386 96.1068 13.9789 95.8355 14.2697C95.5634 14.5605 95.218 14.7059 94.7984 14.7059C94.3712 14.7059 94.0261 14.5616 93.7612 14.2742C93.4955 13.9868 93.3634 13.5454 93.3634 12.951Z" fill="#1C1C23"/>
<path d="M106.509 1.72727L112.042 10.1085V1.64968C112.042 1.10049 112.161 0.688041 112.396 0.412696C112.632 0.138105 112.95 0.000244141 113.351 0.000244141C113.765 0.000244141 114.091 0.138105 114.329 0.412696C114.568 0.688418 114.689 1.10087 114.689 1.64968V12.8337C114.689 14.0828 114.171 14.7061 113.138 14.7061C112.879 14.7061 112.647 14.6696 112.441 14.5954C112.233 14.5212 112.039 14.4025 111.859 14.2413C111.678 14.0797 111.51 13.8903 111.354 13.6741C111.199 13.4575 111.044 13.236 110.889 13.0096L105.491 4.7248V13.0575C105.491 13.6002 105.366 14.0116 105.114 14.2892C104.861 14.5671 104.539 14.7058 104.144 14.7058C103.737 14.7058 103.411 14.5656 103.166 14.2835C102.92 14.0025 102.797 13.5935 102.797 13.0571V2.08586C102.797 1.62067 102.848 1.25568 102.953 0.989752C103.076 0.698964 103.279 0.46091 103.563 0.277095C103.847 0.0929046 104.155 0.000244141 104.484 0.000244141C104.742 0.000244141 104.964 0.0431843 105.148 0.127181C105.332 0.211178 105.493 0.324179 105.633 0.466183C105.772 0.608187 105.914 0.792378 106.059 1.01838C106.203 1.24589 106.354 1.48168 106.509 1.72727Z" fill="#1C1C23"/>
<path d="M121.748 1.72727L127.282 10.1085V1.64968C127.282 1.10049 127.4 0.688041 127.635 0.412696C127.871 0.138105 128.189 0.000244141 128.59 0.000244141C129.004 0.000244141 129.33 0.138105 129.569 0.412696C129.808 0.688418 129.928 1.10087 129.928 1.64968V12.8337C129.928 14.0828 129.411 14.7061 128.377 14.7061C128.119 14.7061 127.886 14.6696 127.68 14.5954C127.472 14.5212 127.279 14.4025 127.098 14.2413C126.917 14.0797 126.75 13.8903 126.593 13.6741C126.438 13.4575 126.284 13.236 126.129 13.0096L120.731 4.72517V13.0578C120.731 13.6006 120.605 14.0119 120.353 14.2895C120.1 14.5675 119.778 14.7061 119.384 14.7061C118.976 14.7061 118.65 14.566 118.405 14.2839C118.16 14.0029 118.036 13.5938 118.036 13.0575V2.08586C118.036 1.62067 118.088 1.25568 118.192 0.989752C118.315 0.698964 118.518 0.46091 118.802 0.277095C119.086 0.0929046 119.394 0.000244141 119.723 0.000244141C119.981 0.000244141 120.203 0.0431843 120.387 0.127181C120.571 0.211178 120.732 0.324179 120.872 0.466183C121.011 0.608187 121.152 0.792378 121.298 1.01838C121.443 1.24589 121.593 1.48168 121.748 1.72727Z" fill="#1C1C23"/>
<path d="M139.487 0.000244141C140.961 0.000244141 142.225 0.299695 143.281 0.898222C144.337 1.49562 145.138 2.34651 145.68 3.44902C146.223 4.55153 146.494 5.84689 146.494 7.33398C146.494 8.43348 146.346 9.4324 146.048 10.3315C145.751 11.2306 145.306 12.0099 144.711 12.6691C144.117 13.329 143.387 13.833 142.521 14.1829C141.655 14.5317 140.663 14.7061 139.545 14.7061C138.434 14.7061 137.439 14.5272 136.561 14.1679C135.682 13.8093 134.948 13.3034 134.361 12.6495C133.772 11.9971 133.328 11.211 133.028 10.2927C132.727 9.3744 132.577 8.3815 132.577 7.31439C132.577 6.22168 132.733 5.21899 133.047 4.3082C133.36 3.39629 133.814 2.61997 134.409 1.97926C135.003 1.33968 135.727 0.849632 136.58 0.5095C137.432 0.170122 138.402 0.000244141 139.487 0.000244141ZM143.577 7.31439C143.577 6.27328 143.409 5.37191 143.073 4.60878C142.736 3.84528 142.257 3.26822 141.634 2.87724C141.01 2.48513 140.294 2.29039 139.486 2.29039C138.912 2.29039 138.38 2.39812 137.892 2.61432C137.405 2.83166 136.984 3.14731 136.633 3.56089C136.281 3.97447 136.004 4.50294 135.799 5.14704C135.596 5.79002 135.495 6.51322 135.495 7.31439C135.495 8.1231 135.596 8.85422 135.799 9.50661C136.004 10.1601 136.291 10.7018 136.662 11.1316C137.033 11.5621 137.46 11.8841 137.941 12.0973C138.423 12.3105 138.951 12.4171 139.526 12.4171C140.263 12.4171 140.939 12.2329 141.557 11.8649C142.173 11.4958 142.665 10.927 143.03 10.1571C143.394 9.38682 143.577 8.4395 143.577 7.31439Z" fill="#1C1C23"/>
<path d="M46.1637 7.44966C45.2586 7.44966 44.5267 8.18228 44.5267 9.08817V22.0746C44.5267 23.3274 43.8527 24.3975 42.726 24.9373C41.5992 25.477 40.3378 25.3422 39.3654 24.5515L26.5196 14.2677L38.8069 4.01219C39.2404 3.71349 39.5291 3.22194 39.5291 2.65317C39.5291 1.74728 38.7971 1.01466 37.8921 1.01466C37.5549 1.01466 37.2373 1.1205 36.9772 1.29415C36.9388 1.31336 36.9099 1.34236 36.8711 1.37136L23.9003 12.1663L10.4769 1.42937C8.52224 -0.141713 5.91243 -0.440412 3.65938 0.648537C1.39654 1.72807 0 3.96397 0 6.46995V22.0742C0 24.5802 1.39616 26.8067 3.65938 27.8956C5.9128 28.9751 8.53164 28.6764 10.4769 27.1148L23.9003 16.368L37.314 27.1148C38.4889 28.0595 39.9043 28.5412 41.3392 28.5412C42.283 28.5412 43.2457 28.3292 44.1417 27.8956C46.4045 26.8067 47.8007 24.5802 47.8007 22.0742V9.08817C47.8007 8.18228 47.0687 7.44966 46.1637 7.44966ZM8.43531 24.5515C7.4531 25.3418 6.20107 25.477 5.07473 24.9373C3.94802 24.3975 3.27402 23.3278 3.27402 22.0746V6.47033C3.27402 5.21753 3.94802 4.13799 5.07473 3.59823C5.52745 3.38616 5.99898 3.28032 6.46148 3.28032C7.16446 3.28032 7.84824 3.51159 8.43568 3.98394L21.2811 14.2677L8.43531 24.5515ZM47.8011 1.63918C47.8011 2.54393 47.068 3.27768 46.1641 3.27768C45.2601 3.27768 44.5271 2.54393 44.5271 1.63918C44.5271 0.734417 45.2601 0.000667178 46.1641 0.000667178C47.0684 0.000667178 47.8011 0.734041 47.8011 1.63918Z" fill="url(#paint0_linear_128_6811)"/>
<defs>
<linearGradient id="paint0_linear_128_6811" x1="-3.01059e-05" y1="14.2712" x2="47.8012" y2="14.2712" gradientUnits="userSpaceOnUse">
<stop stop-color="#4F30B9"/>
<stop offset="0.5" stop-color="#335ACF"/>
<stop offset="1" stop-color="#1E7ADF"/>
</linearGradient>
</defs>
</svg>
